<svg
  aria-hidden="true"
  style="position: absolute; width: 0; height: 0; overflow: hidden"
  version="1.1"
  xmlns="http://www.w3.org/2000/svg"
  xmlns:xlink="http://www.w3.org/1999/xlink"
>
  <defs>
    <symbol id="icon-arrow" viewBox="0 0 32 32">
      <path
        stroke-linejoin="round"
        stroke-linecap="round"
        stroke-miterlimit="4"
        stroke-width="2"
        d="M20 6.667l-8 9.333 8 9.333"
      ></path>
    </symbol>
    <symbol id="icon-close" viewBox="0 0 32 32">
      <path
        fill="none"
        opacity="0.5"
        stroke="#1e1e1e"
        style="stroke: var(--color1, #1e1e1e)"
        stroke-linejoin="miter"
        stroke-linecap="butt"
        stroke-miterlimit="4"
        stroke-width="2"
        d="M16 29.333c7.364 0 13.333-5.97 13.333-13.333s-5.97-13.333-13.333-13.333c-7.364 0-13.333 5.97-13.333 13.333s5.97 13.333 13.333 13.333z"
      ></path>
      <path
        fill="none"
        stroke="#1e1e1e"
        style="stroke: var(--color1, #1e1e1e)"
        stroke-linejoin="miter"
        stroke-linecap="round"
        stroke-miterlimit="4"
        stroke-width="2"
        d="M19.334 12.667l-6.667 6.667M12.667 12.667l6.667 6.667"
      ></path>
    </symbol>
    <symbol id="icon-down-arrow" viewBox="0 0 32 32">
      <path
        d="M8.707 7.293c-0.19-0.177-0.44-0.273-0.699-0.268s-0.506 0.11-0.689 0.293c-0.183 0.183-0.288 0.43-0.293 0.689s0.092 0.51 0.268 0.699l1.413-1.413zM7.294 8.707l16 16 1.413-1.413-16-16-1.413 1.413z"
      ></path>
      <path
        fill="none"
        stroke="#1e1e1e"
        style="stroke: var(--color1, #1e1e1e)"
        stroke-linejoin="round"
        stroke-linecap="round"
        stroke-miterlimit="4"
        stroke-width="2"
        d="M24 12v12h-12"
      ></path>
    </symbol>
    <symbol id="icon-gamepad" viewBox="0 0 32 32">
      <path
        fill="none"
        stroke="#d10003"
        style="stroke: var(--color1, #d10003)"
        stroke-linejoin="miter"
        stroke-linecap="round"
        stroke-miterlimit="4"
        stroke-width="2"
        d="M13.554 6.373l0.669 0.472c0.52 0.367 1.141 0.565 1.777 0.565s1.258-0.197 1.777-0.565l0.669-0.473c0.955-0.676 2.096-1.039 3.267-1.039h0.816c0.54 0 1.084 0.033 1.592 0.213 3.177 1.128 5.361 5.247 5.204 14.591-0.032 1.883-0.472 3.963-2.171 4.775-0.579 0.279-1.214 0.423-1.857 0.421-0.723 0.012-1.433-0.191-2.040-0.583-1.22-0.799-2.112-2.133-3.405-2.803-0.779-0.404-1.643-0.615-2.52-0.615h-2.665c-0.877 0-1.741 0.211-2.52 0.613-1.293 0.672-2.187 2.005-3.404 2.804-0.607 0.392-1.317 0.595-2.040 0.583-0.643 0.001-1.278-0.143-1.857-0.421-1.699-0.812-2.139-2.893-2.171-4.775-0.159-9.344 2.027-13.463 5.204-14.591 0.508-0.18 1.055-0.213 1.592-0.213h0.816c1.171 0 2.312 0.363 3.267 1.040z"
      ></path>
      <path
        fill="none"
        opacity="0.5"
        stroke="#d10003"
        style="stroke: var(--color1, #d10003)"
        stroke-linejoin="miter"
        stroke-linecap="round"
        stroke-miterlimit="4"
        stroke-width="2"
        d="M16 29.333v-4"
      ></path>
      <path
        fill="none"
        stroke="#d10003"
        style="stroke: var(--color1, #d10003)"
        stroke-linejoin="miter"
        stroke-linecap="round"
        stroke-miterlimit="4"
        stroke-width="2"
        d="M14 22v2c0 0.354 0.14 0.693 0.39 0.943s0.589 0.39 0.943 0.39h1.333c0.354 0 0.693-0.14 0.943-0.39s0.39-0.589 0.39-0.943v-2"
      ></path>
      <path
        fill="none"
        opacity="0.5"
        stroke="#d10003"
        style="stroke: var(--color1, #d10003)"
        stroke-linejoin="miter"
        stroke-linecap="round"
        stroke-miterlimit="4"
        stroke-width="2"
        d="M10 12v4M8 14h4"
      ></path>
      <path
        d="M25.334 13.667c0 0.265-0.105 0.52-0.293 0.707s-0.442 0.293-0.707 0.293c-0.265 0-0.52-0.105-0.707-0.293s-0.293-0.442-0.293-0.707 0.105-0.52 0.293-0.707c0.188-0.188 0.442-0.293 0.707-0.293s0.52 0.105 0.707 0.293c0.188 0.188 0.293 0.442 0.293 0.707zM21.334 13.667c0 0.265-0.105 0.52-0.293 0.707s-0.442 0.293-0.707 0.293c-0.265 0-0.52-0.105-0.707-0.293s-0.293-0.442-0.293-0.707 0.105-0.52 0.293-0.707c0.188-0.188 0.442-0.293 0.707-0.293s0.52 0.105 0.707 0.293c0.188 0.188 0.293 0.442 0.293 0.707zM22.334 10.667c0.265 0 0.52 0.105 0.707 0.293s0.293 0.442 0.293 0.707-0.105 0.52-0.293 0.707c-0.188 0.188-0.442 0.293-0.707 0.293s-0.52-0.105-0.707-0.293c-0.188-0.188-0.293-0.442-0.293-0.707s0.105-0.52 0.293-0.707c0.188-0.188 0.442-0.293 0.707-0.293zM22.334 14.667c0.131 0 0.261 0.026 0.383 0.076s0.232 0.124 0.324 0.217c0.093 0.093 0.166 0.203 0.217 0.324s0.076 0.251 0.076 0.383-0.026 0.261-0.076 0.383c-0.050 0.121-0.124 0.232-0.217 0.324s-0.203 0.166-0.324 0.217c-0.121 0.050-0.251 0.076-0.383 0.076-0.265 0-0.52-0.105-0.707-0.293s-0.293-0.442-0.293-0.707 0.105-0.52 0.293-0.707c0.188-0.188 0.442-0.293 0.707-0.293z"
      ></path>
    </symbol>
    <symbol id="icon-idle-fun" viewBox="0 0 32 32">
      <path
        fill="none"
        opacity="0.5"
        stroke="#d10003"
        style="stroke: var(--color1, #d10003)"
        stroke-linejoin="miter"
        stroke-linecap="butt"
        stroke-miterlimit="4"
        stroke-width="2"
        d="M14.862 9.364c0.507-0.911 0.76-1.364 1.139-1.364s0.632 0.453 1.139 1.364l0.131 0.235c0.144 0.259 0.216 0.387 0.328 0.472 0.113 0.085 0.253 0.117 0.533 0.18l0.253 0.059c0.984 0.223 1.476 0.333 1.593 0.709s-0.219 0.769-0.889 1.553l-0.173 0.203c-0.191 0.223-0.287 0.333-0.329 0.472s-0.028 0.287 0 0.584l0.027 0.271c0.101 1.047 0.152 1.571-0.153 1.803-0.307 0.232-0.768 0.020-1.689-0.404l-0.237-0.109c-0.263-0.12-0.393-0.18-0.532-0.18s-0.269 0.060-0.532 0.18l-0.237 0.109c-0.921 0.425-1.383 0.636-1.689 0.404s-0.255-0.756-0.153-1.803l0.027-0.271c0.028-0.297 0.043-0.445 0-0.584s-0.139-0.249-0.329-0.472l-0.173-0.203c-0.671-0.784-1.007-1.176-0.889-1.553 0.117-0.376 0.609-0.487 1.593-0.709l0.253-0.059c0.28-0.063 0.42-0.093 0.533-0.18 0.112-0.085 0.184-0.213 0.328-0.472l0.131-0.235z"
      ></path>
      <path
        fill="none"
        stroke="#d10003"
        style="stroke: var(--color1, #d10003)"
        stroke-linejoin="miter"
        stroke-linecap="butt"
        stroke-miterlimit="4"
        stroke-width="2"
        d="M25.334 12c0 1.226-0.241 2.439-0.71 3.572s-1.157 2.161-2.023 3.028c-0.867 0.867-1.896 1.554-3.028 2.023s-2.346 0.71-3.572 0.71c-1.226 0-2.439-0.241-3.572-0.71s-2.161-1.157-3.028-2.023c-0.867-0.867-1.554-1.896-2.023-3.028s-0.71-2.346-0.71-3.572c0-2.475 0.983-4.849 2.734-6.6s4.124-2.734 6.6-2.734c2.475 0 4.849 0.983 6.6 2.734s2.734 4.124 2.734 6.6z"
      ></path>
      <path
        fill="none"
        opacity="0.5"
        stroke="#d10003"
        style="stroke: var(--color1, #d10003)"
        stroke-linejoin="miter"
        stroke-linecap="round"
        stroke-miterlimit="4"
        stroke-width="2"
        d="M9.802 20l-0.849 3.097c-0.837 3.056-1.256 4.584-0.697 5.42 0.196 0.293 0.459 0.528 0.764 0.684 0.869 0.443 2.213-0.257 4.9-1.657 0.893-0.467 1.341-0.699 1.816-0.749 0.176-0.018 0.354-0.018 0.531 0 0.475 0.051 0.921 0.284 1.816 0.749 2.687 1.4 4.031 2.1 4.9 1.657 0.305-0.156 0.568-0.391 0.764-0.684 0.56-0.836 0.14-2.364-0.697-5.42l-0.849-3.097"
      ></path>
    </symbol>
    <symbol id="icon-improvement" viewBox="0 0 32 32">
      <path
        fill="none"
        stroke="#d10003"
        style="stroke: var(--color1, #d10003)"
        stroke-linejoin="miter"
        stroke-linecap="butt"
        stroke-miterlimit="4"
        stroke-width="2"
        d="M15.748 8.969c1.352-2.424 2.027-3.636 3.039-3.636 1.009 0 1.685 1.212 3.036 3.636l0.349 0.627c0.384 0.689 0.576 1.033 0.876 1.26 0.299 0.227 0.672 0.312 1.417 0.48l0.68 0.155c2.623 0.593 3.933 0.889 4.247 1.893s-0.583 2.049-2.371 4.141l-0.463 0.541c-0.508 0.593-0.763 0.891-0.877 1.259s-0.076 0.764 0 1.557l0.071 0.721c0.271 2.792 0.407 4.187-0.411 4.807s-2.045 0.055-4.503-1.076l-0.635-0.293c-0.699-0.32-1.048-0.481-1.417-0.481-0.371 0-0.72 0.16-1.417 0.481l-0.636 0.293c-2.456 1.131-3.684 1.696-4.501 1.076s-0.681-2.015-0.412-4.807l0.071-0.721c0.076-0.793 0.115-1.189 0-1.557s-0.368-0.664-0.876-1.259l-0.463-0.541c-1.792-2.092-2.685-3.139-2.372-4.141s1.624-1.3 4.247-1.893l0.68-0.155c0.745-0.168 1.117-0.253 1.417-0.48s0.491-0.571 0.875-1.26l0.349-0.627z"
      ></path>
      <path
        fill="none"
        opacity="0.5"
        stroke="#d10003"
        style="stroke: var(--color1, #d10003)"
        stroke-linejoin="miter"
        stroke-linecap="round"
        stroke-miterlimit="4"
        stroke-width="2"
        d="M2.786 21.333c0.745-0.581 1.611-0.987 2.534-1.188s1.879-0.194 2.799 0.023M2.786 14c1.333-0.667 1.72-0.587 2.667-0.667M2.667 7.479l0.277-0.163c2.941-1.723 6.056-2.187 8.993-1.34l0.277 0.080"
      ></path>
    </symbol>
    <symbol id="icon-menu" viewBox="0 0 32 32">
      <path
        d="M5.333 24c-0.378 0-0.694-0.128-0.949-0.384s-0.383-0.572-0.384-0.949c-0.001-0.377 0.127-0.693 0.384-0.949s0.573-0.384 0.949-0.384h21.333c0.378 0 0.695 0.128 0.951 0.384s0.384 0.573 0.383 0.949c-0.001 0.377-0.129 0.694-0.384 0.951s-0.572 0.384-0.949 0.383h-21.333zM5.333 17.333c-0.378 0-0.694-0.128-0.949-0.384s-0.383-0.572-0.384-0.949c-0.001-0.377 0.127-0.693 0.384-0.949s0.573-0.384 0.949-0.384h21.333c0.378 0 0.695 0.128 0.951 0.384s0.384 0.572 0.383 0.949c-0.001 0.377-0.129 0.694-0.384 0.951s-0.572 0.384-0.949 0.383h-21.333zM5.333 10.667c-0.378 0-0.694-0.128-0.949-0.384s-0.383-0.572-0.384-0.949c-0.001-0.377 0.127-0.693 0.384-0.949s0.573-0.384 0.949-0.384h21.333c0.378 0 0.695 0.128 0.951 0.384s0.384 0.572 0.383 0.949c-0.001 0.377-0.129 0.694-0.384 0.951s-0.572 0.384-0.949 0.383h-21.333z"
      ></path>
    </symbol>
    <symbol id="icon-icon-play" viewBox="0 0 32 32">
      <path
        fill="none"
        opacity="0.5"
        stroke="#d10003"
        style="stroke: var(--color1, #d10003)"
        stroke-linejoin="miter"
        stroke-linecap="butt"
        stroke-miterlimit="4"
        stroke-width="2"
        d="M16 29.333c7.364 0 13.333-5.97 13.333-13.333s-5.97-13.333-13.333-13.333c-7.364 0-13.333 5.97-13.333 13.333s5.97 13.333 13.333 13.333z"
      ></path>
      <path
        fill="none"
        stroke="#d10003"
        style="stroke: var(--color1, #d10003)"
        stroke-linejoin="miter"
        stroke-linecap="butt"
        stroke-miterlimit="4"
        stroke-width="2"
        d="M18.518 13.247c1.433 1.169 2.149 1.753 2.149 2.753s-0.716 1.584-2.149 2.753c-0.396 0.323-0.788 0.627-1.149 0.88-0.316 0.223-0.675 0.452-1.045 0.677-1.431 0.869-2.145 1.304-2.787 0.823-0.64-0.48-0.699-1.488-0.816-3.504-0.032-0.569-0.053-1.128-0.053-1.629s0.021-1.060 0.053-1.629c0.117-2.016 0.176-3.023 0.816-3.504 0.641-0.481 1.357-0.047 2.787 0.823 0.371 0.225 0.729 0.455 1.045 0.677 0.36 0.253 0.753 0.557 1.149 0.88z"
      ></path>
    </symbol>
    <symbol id="icon-quote" viewBox="0 0 32 32">
      <path
        d="M29.267 11.628l-0.033-0.224-0.035 0.008c-0.237-1.108-0.783-2.126-1.574-2.937s-1.796-1.381-2.898-1.644c-1.102-0.263-2.256-0.209-3.328 0.156s-2.020 1.027-2.732 1.908-1.161 1.946-1.293 3.071c-0.132 1.125 0.056 2.265 0.545 3.287s1.256 1.886 2.215 2.49c0.959 0.604 2.068 0.924 3.201 0.924 0.297 0 0.583-0.045 0.867-0.087-0.092 0.309-0.187 0.624-0.339 0.907-0.152 0.411-0.389 0.767-0.625 1.125-0.197 0.388-0.545 0.651-0.801 0.983-0.268 0.323-0.633 0.537-0.923 0.805-0.284 0.28-0.656 0.42-0.952 0.617-0.309 0.177-0.579 0.373-0.867 0.467l-0.719 0.296-0.632 0.263 0.645 2.585 0.796-0.192c0.255-0.064 0.565-0.139 0.919-0.228 0.361-0.067 0.747-0.249 1.176-0.416 0.423-0.191 0.915-0.317 1.371-0.623 0.459-0.291 0.988-0.533 1.455-0.923 0.452-0.401 0.997-0.749 1.4-1.259 0.44-0.477 0.875-0.979 1.212-1.549 0.391-0.544 0.656-1.141 0.936-1.732 0.253-0.591 0.457-1.195 0.624-1.781 0.316-1.176 0.457-2.293 0.512-3.249 0.045-0.957 0.019-1.753-0.037-2.329-0.019-0.241-0.047-0.48-0.084-0.719zM14.6 11.628l-0.033-0.224-0.035 0.008c-0.237-1.108-0.783-2.126-1.574-2.937s-1.796-1.381-2.898-1.644c-1.102-0.263-2.256-0.209-3.329 0.156s-2.020 1.027-2.732 1.908c-0.712 0.881-1.161 1.946-1.293 3.071s0.056 2.265 0.545 3.287c0.488 1.022 1.256 1.886 2.215 2.49s2.068 0.924 3.201 0.924c0.297 0 0.583-0.045 0.867-0.087-0.092 0.309-0.187 0.624-0.339 0.907-0.152 0.411-0.389 0.767-0.625 1.125-0.197 0.388-0.545 0.651-0.801 0.983-0.268 0.323-0.633 0.537-0.923 0.805-0.284 0.28-0.656 0.42-0.952 0.617-0.309 0.177-0.579 0.373-0.867 0.467l-0.719 0.296c-0.401 0.164-0.631 0.26-0.631 0.26l0.645 2.585 0.796-0.192c0.255-0.064 0.565-0.139 0.919-0.228 0.361-0.067 0.747-0.249 1.176-0.416 0.423-0.191 0.915-0.317 1.371-0.623 0.459-0.291 0.988-0.533 1.455-0.923 0.452-0.401 0.997-0.749 1.4-1.259 0.44-0.477 0.875-0.979 1.212-1.549 0.391-0.544 0.656-1.141 0.936-1.732 0.253-0.591 0.457-1.195 0.624-1.781 0.316-1.176 0.457-2.293 0.512-3.249 0.045-0.957 0.019-1.753-0.037-2.329-0.020-0.24-0.049-0.478-0.085-0.716z"
      ></path>
    </symbol>
    <symbol id="icon-relaxation" viewBox="0 0 32 32">
      <path
        fill="none"
        stroke="#d10003"
        style="stroke: var(--color1, #d10003)"
        stroke-linejoin="miter"
        stroke-linecap="butt"
        stroke-miterlimit="4"
        stroke-width="2"
        d="M22.666 22.667h1.333c1.414 0 2.771-0.562 3.771-1.562s1.562-2.357 1.562-3.771-0.562-2.771-1.562-3.771c-1-1-2.357-1.562-3.771-1.562h-1.333M4.378 15.021c-0.177-2.667-0.267-3.999 0.524-4.843 0.791-0.845 2.127-0.845 4.799-0.845h7.265c2.671 0 4.007 0 4.797 0.845 0.791 0.844 0.701 2.177 0.524 4.843l-0.457 6.844c-0.236 3.54-0.353 5.309-1.507 6.389s-2.928 1.079-6.475 1.079h-1.032c-3.547 0-5.32 0-6.475-1.080-1.153-1.079-1.271-2.848-1.507-6.387l-0.457-6.845z"
      ></path>
      <path
        fill="none"
        opacity="0.5"
        stroke="#d10003"
        style="stroke: var(--color1, #d10003)"
        stroke-linejoin="miter"
        stroke-linecap="butt"
        stroke-miterlimit="4"
        stroke-width="2"
        d="M21.999 24h-17.333"
      ></path>
      <path
        fill="none"
        stroke="#d10003"
        style="stroke: var(--color1, #d10003)"
        stroke-linejoin="miter"
        stroke-linecap="round"
        stroke-miterlimit="4"
        stroke-width="2"
        d="M8.066 6.748l0.548-0.767c0.072-0.101 0.124-0.215 0.152-0.336s0.032-0.246 0.011-0.368c-0.020-0.122-0.065-0.239-0.13-0.344s-0.151-0.196-0.252-0.268c-0.203-0.145-0.341-0.365-0.382-0.612s0.017-0.499 0.162-0.703l0.547-0.767M18.734 6.748l0.547-0.767c0.072-0.101 0.124-0.215 0.151-0.336s0.032-0.246 0.011-0.368c-0.020-0.122-0.065-0.239-0.13-0.344s-0.151-0.196-0.253-0.268c-0.203-0.145-0.341-0.365-0.382-0.612s0.017-0.499 0.162-0.703l0.547-0.767"
      ></path>
      <path
        fill="none"
        opacity="0.5"
        stroke="#d10003"
        style="stroke: var(--color1, #d10003)"
        stroke-linejoin="miter"
        stroke-linecap="round"
        stroke-miterlimit="4"
        stroke-width="2"
        d="M13.4 6.748l0.548-0.767c0.072-0.101 0.123-0.215 0.152-0.336s0.032-0.246 0.011-0.368c-0.020-0.122-0.065-0.239-0.13-0.344s-0.152-0.196-0.252-0.268c-0.204-0.145-0.341-0.365-0.382-0.612s0.017-0.499 0.162-0.703l0.547-0.767"
      ></path>
    </symbol>
    <symbol id="icon-up-arrow" viewBox="0 0 32 32">
      <path
        d="M7.293 23.293c-0.098 0.092-0.177 0.202-0.232 0.325s-0.084 0.255-0.086 0.389 0.022 0.268 0.073 0.392c0.050 0.125 0.125 0.238 0.22 0.333s0.208 0.17 0.333 0.22 0.258 0.075 0.392 0.073c0.134-0.002 0.267-0.032 0.389-0.086s0.233-0.134 0.325-0.232l-1.413-1.413zM8.706 24.707l16-16-1.413-1.413-16 16 1.413 1.413z"
      ></path>
      <path
        fill="none"
        stroke="#1e1e1e"
        style="stroke: var(--color1, #1e1e1e)"
        stroke-linejoin="round"
        stroke-linecap="round"
        stroke-miterlimit="4"
        stroke-width="2"
        d="M12 8h12v12"
      ></path>
    </symbol>
    <symbol id="icon-visualization" viewBox="0 0 32 32">
      <path
        fill="none"
        stroke="#d10003"
        style="stroke: var(--color1, #d10003)"
        stroke-linejoin="miter"
        stroke-linecap="butt"
        stroke-miterlimit="4"
        stroke-width="2"
        d="M2.667 16.035c0 6.861 5.156 12.516 11.796 13.28 0.98 0.113 1.929-0.304 2.627-1.004 0.419-0.42 0.654-0.989 0.654-1.581s-0.235-1.161-0.654-1.581c-0.697-0.7-1.267-1.743-0.74-2.579 2.101-3.344 12.984 4.335 12.984-6.533 0-7.385-5.969-13.369-13.333-13.369s-13.333 5.985-13.333 13.368z"
      ></path>
      <path
        fill="none"
        opacity="0.5"
        stroke="#d10003"
        style="stroke: var(--color1, #d10003)"
        stroke-linejoin="miter"
        stroke-linecap="butt"
        stroke-miterlimit="4"
        stroke-width="2"
        d="M23.334 17.333c1.105 0 2-0.895 2-2s-0.895-2-2-2c-1.105 0-2 0.895-2 2s0.895 2 2 2z"
      ></path>
      <path
        fill="none"
        opacity="0.5"
        stroke="#d10003"
        style="stroke: var(--color1, #d10003)"
        stroke-linejoin="miter"
        stroke-linecap="butt"
        stroke-miterlimit="4"
        stroke-width="2"
        d="M8.667 17.333c1.105 0 2-0.895 2-2s-0.895-2-2-2c-1.105 0-2 0.895-2 2s0.895 2 2 2z"
      ></path>
      <path
        fill="none"
        opacity="0.5"
        stroke="#d10003"
        style="stroke: var(--color1, #d10003)"
        stroke-linejoin="miter"
        stroke-linecap="butt"
        stroke-miterlimit="4"
        stroke-width="2"
        d="M14.667 9.333c0 0.53-0.211 1.039-0.586 1.414s-0.884 0.586-1.414 0.586-1.039-0.211-1.414-0.586c-0.375-0.375-0.586-0.884-0.586-1.414s0.211-1.039 0.586-1.414c0.375-0.375 0.884-0.586 1.414-0.586s1.039 0.211 1.414 0.586c0.375 0.375 0.586 0.884 0.586 1.414zM21.334 9.333c0 0.53-0.211 1.039-0.586 1.414s-0.884 0.586-1.414 0.586c-0.53 0-1.039-0.211-1.414-0.586s-0.586-0.884-0.586-1.414 0.211-1.039 0.586-1.414c0.375-0.375 0.884-0.586 1.414-0.586s1.039 0.211 1.414 0.586c0.375 0.375 0.586 0.884 0.586 1.414z"
      ></path>
    </symbol>
  </defs>
</svg>
