<svg xmlns="http://www.w3.org/2000/svg" aria-hidden="true"
  style="position: absolute; width: 0; height: 0; overflow: hidden">
  <defs>

    <symbol id="icon-arow" viewBox="0 0 48 49">
      <path fill="none" stroke-width="2" stroke-linecap="round" stroke-linejoin="round"
        d="M18 10.2734L30 24.2734L18 38.2734" />
    </symbol>

    <symbol id="icon-back" viewBox="0 0 24 24">
      <path fill="none" stroke="#1873CD" stroke-width="2" stroke-linecap="round" stroke-linejoin="round"
        d="M15 5L9 12L15 19" />
    </symbol>

    <symbol id="icon-close" viewBox="0 0 32 32">
      <path fill="none" stroke-width="2"
        d="M16 29.333c7.364 0 13.333-5.97 13.333-13.333S23.363 2.667 16 2.667C8.636 2.667 2.667 8.637 2.667 16S8.637 29.333 16 29.333z"
        opacity=".5" />
      <path fill="none" stroke-linecap="round" stroke-width="2" d="m19.334 12.667-6.667 6.667m0-6.667 6.667 6.667" />
    </symbol>

    <symbol id="icon-down-arrow" viewBox="0 0 32 32">
      <path fill="#545454" opacity="0.5"
        d="M8.70711 7.29332C8.51755 7.11668 8.26682 7.02052 8.00775 7.02509C7.74868 7.02966 7.5015 7.13461 7.31828 7.31783C7.13507 7.50104 7.03012 7.74822 7.02555 8.00729C7.02098 8.26636 7.11714 8.51709 7.29378 8.70666L8.70711 7.29332ZM7.29378 8.70666L23.2938 24.7067L24.7071 23.2933L8.70711 7.29332L7.29378 8.70666Z" />
      <path fill="none" stroke="#545454" stroke-width="2" stroke-linecap="round" stroke-linejoin="round"
        d="M24 12V24H12" />
    </symbol>

    <symbol id="icon-gamepad" viewBox="0 0 32 32">
      <path fill=" none" stroke-width="2" stroke-linecap="round"
        d="M13.5538 6.37334L14.2231 6.84534C14.743 7.21267 15.3639 7.40989 16.0004 7.40989C16.637 7.40989 17.2579 7.21267 17.7778 6.84534L18.4471 6.37201C19.4023 5.69606 20.5436 5.33315 21.7138 5.33334H22.5298C23.0698 5.33334 23.6138 5.36668 24.1218 5.54668C27.2991 6.67468 29.4831 10.7933 29.3258 20.1373C29.2938 22.02 28.8538 24.1 27.1551 24.912C26.5756 25.1906 25.9407 25.3346 25.2978 25.3333C24.5751 25.3452 23.8652 25.1424 23.2578 24.7507C22.0378 23.952 21.1458 22.6173 19.8524 21.948C19.0739 21.5439 18.2096 21.3331 17.3324 21.3333H14.6671C13.7898 21.3333 12.9258 21.544 12.1471 21.9467C10.8538 22.6187 9.96043 23.952 8.7431 24.7507C8.13571 25.1424 7.42577 25.3452 6.7031 25.3333C6.06015 25.3346 5.42522 25.1906 4.84577 24.912C3.1471 24.1 2.7071 22.0187 2.6751 20.1373C2.51643 10.7933 4.70177 6.67468 7.8791 5.54668C8.3871 5.36668 8.93377 5.33334 9.4711 5.33334H10.2871C11.4578 5.33334 12.5991 5.69601 13.5538 6.37334Z" />
      <path fill="none" stroke-width="2" stroke-linecap="round" opacity="0.5" d="M16 29.3333V25.3333" />
      <path fill="none" stroke-width="2" stroke-linecap="round"
        d="M14 22V24C14 24.3536 14.1405 24.6928 14.3905 24.9428C14.6406 25.1929 14.9797 25.3333 15.3333 25.3333H16.6667C17.0203 25.3333 17.3594 25.1929 17.6095 24.9428C17.8595 24.6928 18 24.3536 18 24V22" />
      <path fill="none" stroke-width="2" stroke-linecap="round" opacity="0.5" d="M10 12V16M8 14H12" />
      <path fill="none" opacity="0.5"
        d="M25.334 13.6667C25.334 13.9319 25.2286 14.1863 25.0411 14.3738C24.8536 14.5613 24.5992 14.6667 24.334 14.6667C24.0688 14.6667 23.8144 14.5613 23.6269 14.3738C23.4393 14.1863 23.334 13.9319 23.334 13.6667C23.334 13.4015 23.4393 13.1471 23.6269 12.9596C23.8144 12.772 24.0688 12.6667 24.334 12.6667C24.5992 12.6667 24.8536 12.772 25.0411 12.9596C25.2286 13.1471 25.334 13.4015 25.334 13.6667ZM21.334 13.6667C21.334 13.9319 21.2286 14.1863 21.0411 14.3738C20.8536 14.5613 20.5992 14.6667 20.334 14.6667C20.0688 14.6667 19.8144 14.5613 19.6269 14.3738C19.4393 14.1863 19.334 13.9319 19.334 13.6667C19.334 13.4015 19.4393 13.1471 19.6269 12.9596C19.8144 12.772 20.0688 12.6667 20.334 12.6667C20.5992 12.6667 20.8536 12.772 21.0411 12.9596C21.2286 13.1471 21.334 13.4015 21.334 13.6667ZM22.334 10.6667C22.5992 10.6667 22.8536 10.772 23.0411 10.9596C23.2286 11.1471 23.334 11.4015 23.334 11.6667C23.334 11.9319 23.2286 12.1863 23.0411 12.3738C22.8536 12.5613 22.5992 12.6667 22.334 12.6667C22.0688 12.6667 21.8144 12.5613 21.6269 12.3738C21.4393 12.1863 21.334 11.9319 21.334 11.6667C21.334 11.4015 21.4393 11.1471 21.6269 10.9596C21.8144 10.772 22.0688 10.6667 22.334 10.6667ZM22.334 14.6667C22.4653 14.6667 22.5953 14.6926 22.7167 14.7428C22.838 14.7931 22.9482 14.8667 23.0411 14.9596C23.134 15.0524 23.2076 15.1627 23.2579 15.284C23.3081 15.4053 23.334 15.5354 23.334 15.6667C23.334 15.798 23.3081 15.928 23.2579 16.0494C23.2076 16.1707 23.134 16.2809 23.0411 16.3738C22.9482 16.4667 22.838 16.5403 22.7167 16.5906C22.5953 16.6408 22.4653 16.6667 22.334 16.6667C22.0688 16.6667 21.8144 16.5613 21.6269 16.3738C21.4393 16.1863 21.334 15.9319 21.334 15.6667C21.334 15.4015 21.4393 15.1471 21.6269 14.9596C21.8144 14.772 22.0688 14.6667 22.334 14.6667Z" />
    </symbol>

    <symbol id="icon-idle-fun" viewBox="0 0 32 32">
      <path fill="none" stroke-width="2"
        d="M14.862 9.364c.507-.911.76-1.364 1.139-1.364s.632.453 1.139 1.364l.131.235c.144.259.216.387.328.472.113.085.253.117.533.18l.253.059c.984.223 1.476.333 1.593.709s-.219.769-.889 1.553l-.173.203c-.191.223-.287.333-.329.472s-.028.287 0 .584l.027.271c.101 1.047.152 1.571-.153 1.803-.307.232-.768.02-1.689-.404l-.237-.109c-.263-.12-.393-.18-.532-.18s-.269.06-.532.18l-.237.109c-.921.425-1.383.636-1.689.404s-.255-.756-.153-1.803l.027-.271c.028-.297.043-.445 0-.584s-.139-.249-.329-.472l-.173-.203c-.671-.784-1.007-1.176-.889-1.553.117-.376.609-.487 1.593-.709l.253-.059c.28-.063.42-.093.533-.18.112-.085.184-.213.328-.472l.131-.235z"
        opacity=".5" />
      <path fill="none" stroke-width="2" d="M25.334 12a9.336 9.336 0 0 1-5.761 8.623A9.333 9.333 0 1 1 25.336 12z" />
      <path fill="none" stroke-linecap="round" stroke-width="2"
        d="m9.802 20-.849 3.097c-.837 3.056-1.256 4.584-.697 5.42.196.293.459.528.764.684.869.443 2.213-.257 4.9-1.657.893-.467 1.341-.699 1.816-.749.176-.018.354-.018.531 0 .475.051.921.284 1.816.749 2.687 1.4 4.031 2.1 4.9 1.657.305-.156.568-.391.764-.684.56-.836.14-2.364-.697-5.42L22.201 20"
        opacity=".5" />
    </symbol>

    <symbol id="icon-improvement" viewBox="0 0 32 32">
      <path fill="none" stroke-width="2"
        d="M15.748 8.969c1.352-2.424 2.027-3.636 3.039-3.636 1.009 0 1.685 1.212 3.036 3.636l.349.627c.384.689.576 1.033.876 1.26.299.227.672.312 1.417.48l.68.155c2.623.593 3.933.889 4.247 1.893s-.583 2.049-2.371 4.141l-.463.541c-.508.593-.763.891-.877 1.259s-.076.764 0 1.557l.071.721c.271 2.792.407 4.187-.411 4.807s-2.045.055-4.503-1.076l-.635-.293c-.699-.32-1.048-.481-1.417-.481-.371 0-.72.16-1.417.481l-.636.293c-2.456 1.131-3.684 1.696-4.501 1.076s-.681-2.015-.412-4.807l.071-.721c.076-.793.115-1.189 0-1.557s-.368-.664-.876-1.259l-.463-.541c-1.792-2.092-2.685-3.139-2.372-4.141s1.624-1.3 4.247-1.893l.68-.155c.745-.168 1.117-.253 1.417-.48s.491-.571.875-1.26l.349-.627z" />
      <path fill="none" stroke-linecap="round" stroke-width="2"
        d="M2.786 21.333a6.326 6.326 0 0 1 5.333-1.165M2.786 14c1.333-.667 1.72-.587 2.667-.667M2.667 7.479l.277-.163C5.885 5.593 9 5.129 11.937 5.976l.277.08"
        opacity=".5" />
    </symbol>

    <symbol id="icon-menu" viewBox="0 0 32 32">
      <path
        d="M5.333 24c-.378 0-.694-.128-.949-.384s-.383-.572-.384-.949c-.001-.377.127-.693.384-.949s.573-.384.949-.384h21.333c.378 0 .695.128.951.384s.384.573.383.949c-.001.377-.129.694-.384.951s-.572.384-.949.383H5.334zm0-6.667c-.378 0-.694-.128-.949-.384S4.001 16.377 4 16c-.001-.377.127-.693.384-.949s.573-.384.949-.384h21.333c.378 0 .695.128.951.384s.384.572.383.949c-.001.377-.129.694-.384.951s-.572.384-.949.383H5.334zm0-6.666c-.378 0-.694-.128-.949-.384S4.001 9.711 4 9.334c-.001-.377.127-.693.384-.949s.573-.384.949-.384h21.333c.378 0 .695.128.951.384s.384.572.383.949c-.001.377-.129.694-.384.951s-.572.384-.949.383H5.334z" />
    </symbol>

    <symbol id="icon-play" viewBox="0 0 32 32">
      <path fill="none" stroke-width="2"
        d="M16 29.333c7.364 0 13.333-5.97 13.333-13.333S23.363 2.667 16 2.667C8.636 2.667 2.667 8.637 2.667 16S8.637 29.333 16 29.333z"
        opacity=".5" />
      <path fill="none" stroke-width="2"
        d="M18.518 13.247C19.951 14.416 20.667 15 20.667 16s-.716 1.584-2.149 2.753a20.34 20.34 0 0 1-1.149.88 18.66 18.66 0 0 1-1.045.677c-1.431.869-2.145 1.304-2.787.823-.64-.48-.699-1.488-.816-3.504-.032-.569-.053-1.128-.053-1.629s.021-1.06.053-1.629c.117-2.016.176-3.023.816-3.504.641-.481 1.357-.047 2.787.823.371.225.729.455 1.045.677.36.253.753.557 1.149.88z" />
    </symbol>

    <symbol id="icon-quote" viewBox="0 0 32 32">
      <path
        d="m29.267 11.628-.033-.224-.035.008a6.006 6.006 0 0 0-4.472-4.581 6.003 6.003 0 0 0-7.353 5.135 5.997 5.997 0 0 0 2.76 5.777 6.004 6.004 0 0 0 3.201.924c.297 0 .583-.045.867-.087-.092.309-.187.624-.339.907-.152.411-.389.767-.625 1.125-.197.388-.545.651-.801.983-.268.323-.633.537-.923.805-.284.28-.656.42-.952.617-.309.177-.579.373-.867.467l-.719.296-.632.263.645 2.585.796-.192c.255-.064.565-.139.919-.228.361-.067.747-.249 1.176-.416.423-.191.915-.317 1.371-.623.459-.291.988-.533 1.455-.923.452-.401.997-.749 1.4-1.259.44-.477.875-.979 1.212-1.549.391-.544.656-1.141.936-1.732.253-.591.457-1.195.624-1.781.316-1.176.457-2.293.512-3.249.045-.957.019-1.753-.037-2.329a9.648 9.648 0 0 0-.084-.719zm-14.667 0-.033-.224-.035.008a6.006 6.006 0 0 0-4.472-4.581 6.007 6.007 0 0 0-6.061 2.064 6 6 0 0 0 4.668 9.772c.297 0 .583-.045.867-.087-.092.309-.187.624-.339.907-.152.411-.389.767-.625 1.125-.197.388-.545.651-.801.983-.268.323-.633.537-.923.805-.284.28-.656.42-.952.617-.309.177-.579.373-.867.467l-.719.296c-.401.164-.631.26-.631.26l.645 2.585.796-.192c.255-.064.565-.139.919-.228.361-.067.747-.249 1.176-.416.423-.191.915-.317 1.371-.623.459-.291.988-.533 1.455-.923.452-.401.997-.749 1.4-1.259.44-.477.875-.979 1.212-1.549.391-.544.656-1.141.936-1.732.253-.591.457-1.195.624-1.781.316-1.176.457-2.293.512-3.249.045-.957.019-1.753-.037-2.329a10.75 10.75 0 0 0-.085-.716z" />
    </symbol>

    <symbol id="icon-relaxation" viewBox="0 0 32 32">
      <path fill="none" stroke-width="2"
        d="M22.666 22.667h1.333a5.334 5.334 0 0 0 0-10.666h-1.333m-18.288 3.02c-.177-2.667-.267-3.999.524-4.843.791-.845 2.127-.845 4.799-.845h7.265c2.671 0 4.007 0 4.797.845.791.844.701 2.177.524 4.843l-.457 6.844c-.236 3.54-.353 5.309-1.507 6.389s-2.928 1.079-6.475 1.079h-1.032c-3.547 0-5.32 0-6.475-1.08-1.153-1.079-1.271-2.848-1.507-6.387l-.457-6.845z" />
      <path fill="none" stroke-width="2" d="M21.999 24H4.666" opacity=".5" />
      <path fill="none" stroke-linecap="round" stroke-width="2"
        d="m8.066 6.748.548-.767a.947.947 0 0 0 .033-1.048.933.933 0 0 0-.252-.268.942.942 0 0 1-.22-1.315l.547-.767m10.012 4.165.547-.767a.95.95 0 0 0 .032-1.048.923.923 0 0 0-.253-.268.942.942 0 0 1-.22-1.315l.547-.767" />
      <path fill="none" stroke-linecap="round" stroke-width="2"
        d="m13.4 6.748.548-.767c.072-.101.123-.215.152-.336s.032-.246.011-.368a.946.946 0 0 0-.382-.612.945.945 0 0 1-.22-1.315l.547-.767"
        opacity=".5" />
    </symbol>

    <symbol id="icon-up-arrow" viewBox="0 0 32 32">
      <path fill="#545454" opacity="0.5"
        d="M7.29289 23.2933C7.19464 23.3849 7.11583 23.4953 7.06118 23.618C7.00652 23.7406 6.97713 23.873 6.97477 24.0073C6.9724 24.1416 6.9971 24.2749 7.04739 24.3995C7.09768 24.524 7.17254 24.6371 7.2675 24.7321C7.36246 24.827 7.47557 24.9019 7.60009 24.9522C7.72461 25.0025 7.85798 25.0272 7.99225 25.0248C8.12652 25.0224 8.25894 24.993 8.3816 24.9384C8.50427 24.8837 8.61467 24.8049 8.70622 24.7067L7.29289 23.2933ZM8.70622 24.7067L24.7062 8.70667L23.2929 7.29333L7.29289 23.2933L8.70622 24.7067Z" />
      <path fill="none" stroke="#545454" stroke-width="2" stroke-linecap="round" stroke-linejoin="round"
        d="M12 8H24V20" />
    </symbol>

    <symbol id="icon-visualization" viewBox="0 0 32 32">
      <path fill="none" stroke-width="2"
        d="M2.667 16.035c0 6.861 5.156 12.516 11.796 13.28.98.113 1.929-.304 2.627-1.004a2.24 2.24 0 0 0 0-3.162c-.697-.7-1.267-1.743-.74-2.579 2.101-3.344 12.984 4.335 12.984-6.533 0-7.385-5.969-13.369-13.333-13.369S2.668 8.653 2.668 16.036z" />
      <path fill="none" stroke-width="2"
        d="M23.334 17.333a2 2 0 1 0 .001-3.999 2 2 0 0 0-.001 3.999zM8.667 17.333a2 2 0 1 0 .001-3.999 2 2 0 0 0-.001 3.999zM14.667 9.333a2 2 0 1 1-4.001-.001 2 2 0 0 1 4.001.001zm6.667 0a2 2 0 1 1-4.001-.001 2 2 0 0 1 4.001.001z"
        opacity=".5" />
    </symbol>
  </defs>
</svg>