<svg
  xmlns="http://www.w3.org/2000/svg"
  aria-hidden="true"
  style="position: absolute; width: 0; height: 0; overflow: hidden"
>
  <defs>
    <symbol id="icon-arrow" viewBox="0 0 32 32">
      <path
        stroke-linecap="round"
        stroke-linejoin="round"
        stroke-width="2"
        d="M20 6.667 12 16l8 9.333"
      />
    </symbol>
    <symbol id="icon-close" viewBox="0 0 32 32">
      <path
        fill="none"
        stroke="#1e1e1e"
        stroke-width="2"
        d="M16 29.333c7.364 0 13.333-5.97 13.333-13.333S23.363 2.667 16 2.667C8.636 2.667 2.667 8.637 2.667 16S8.637 29.333 16 29.333z"
        opacity=".5"
        style="stroke: var(--color1, #1e1e1e)"
      />
      <path
        fill="none"
        stroke="#1e1e1e"
        stroke-linecap="round"
        stroke-width="2"
        d="m19.334 12.667-6.667 6.667m0-6.667 6.667 6.667"
        style="stroke: var(--color1, #1e1e1e)"
      />
    </symbol>
    <symbol id="icon-down-arrow" viewBox="0 0 32 32">
      <path
        d="M8.707 7.293a.996.996 0 0 0-1.388.025 1.002 1.002 0 0 0-.025 1.388l1.413-1.413zM7.294 8.707l16 16 1.413-1.413-16-16-1.413 1.413z"
      />
      <path
        fill="none"
        stroke="#1e1e1e"
        stroke-linecap="round"
        stroke-linejoin="round"
        stroke-width="2"
        d="M24 12v12H12"
        style="stroke: var(--color1, #1e1e1e)"
      />
    </symbol>
    <symbol id="icon-gamepad" viewBox="0 0 32 32">
      <path
        fill="none"
        stroke="#1e1e1e"
        stroke-linecap="round"
        stroke-width="2"
        d="m13.554 6.373.669.472a3.083 3.083 0 0 0 3.554 0l.669-.473a5.653 5.653 0 0 1 3.267-1.039h.816c.54 0 1.084.033 1.592.213 3.177 1.128 5.361 5.247 5.204 14.591-.032 1.883-.472 3.963-2.171 4.775a4.248 4.248 0 0 1-1.857.421 3.649 3.649 0 0 1-2.04-.583c-1.22-.799-2.112-2.133-3.405-2.803a5.473 5.473 0 0 0-2.52-.615h-2.665c-.877 0-1.741.211-2.52.613-1.293.672-2.187 2.005-3.404 2.804a3.649 3.649 0 0 1-2.04.583 4.276 4.276 0 0 1-1.857-.421c-1.699-.812-2.139-2.893-2.171-4.775-.159-9.344 2.027-13.463 5.204-14.591.508-.18 1.055-.213 1.592-.213h.816c1.171 0 2.312.363 3.267 1.04z"
        style="stroke: var(--color1, #1e1e1e)"
      />
      <path
        fill="none"
        stroke="#1e1e1e"
        stroke-linecap="round"
        stroke-width="2"
        d="M16 29.333v-4"
        opacity=".5"
        style="stroke: var(--color1, #1e1e1e)"
      />
      <path
        fill="none"
        stroke="#1e1e1e"
        stroke-linecap="round"
        stroke-width="2"
        d="M14 22v2a1.333 1.333 0 0 0 1.333 1.333h1.333A1.333 1.333 0 0 0 17.999 24v-2"
        style="stroke: var(--color1, #1e1e1e)"
      />
      <path
        fill="none"
        stroke="#1e1e1e"
        stroke-linecap="round"
        stroke-width="2"
        d="M10 12v4m-2-2h4"
        opacity=".5"
        style="stroke: var(--color1, #1e1e1e)"
      />
      <path
        d="M25.334 13.667a.997.997 0 0 1-1 1 .997.997 0 0 1-1-1 .997.997 0 0 1 1-1 .997.997 0 0 1 1 1zm-4 0a.997.997 0 0 1-1 1 .997.997 0 0 1-1-1 .997.997 0 0 1 1-1 .997.997 0 0 1 1 1zm1-3a.997.997 0 0 1 1 1 .997.997 0 0 1-1 1 .997.997 0 0 1-1-1 .997.997 0 0 1 1-1zm0 4a1.01 1.01 0 0 1 .707.293.984.984 0 0 1 .293.707 1.006 1.006 0 0 1-.293.707 1.002 1.002 0 0 1-1.707-.707.997.997 0 0 1 1-1z"
      />
    </symbol>
    <symbol id="icon-idle-fun" viewBox="0 0 32 32">
      <path
        fill="none"
        stroke="#1e1e1e"
        stroke-width="2"
        d="M14.862 9.364c.507-.911.76-1.364 1.139-1.364s.632.453 1.139 1.364l.131.235c.144.259.216.387.328.472.113.085.253.117.533.18l.253.059c.984.223 1.476.333 1.593.709s-.219.769-.889 1.553l-.173.203c-.191.223-.287.333-.329.472s-.028.287 0 .584l.027.271c.101 1.047.152 1.571-.153 1.803-.307.232-.768.02-1.689-.404l-.237-.109c-.263-.12-.393-.18-.532-.18s-.269.06-.532.18l-.237.109c-.921.425-1.383.636-1.689.404s-.255-.756-.153-1.803l.027-.271c.028-.297.043-.445 0-.584s-.139-.249-.329-.472l-.173-.203c-.671-.784-1.007-1.176-.889-1.553.117-.376.609-.487 1.593-.709l.253-.059c.28-.063.42-.093.533-.18.112-.085.184-.213.328-.472l.131-.235z"
        opacity=".5"
        style="stroke: var(--color1, #1e1e1e)"
      />
      <path
        fill="none"
        stroke="#1e1e1e"
        stroke-width="2"
        d="M25.334 12a9.336 9.336 0 0 1-5.761 8.623A9.333 9.333 0 1 1 25.336 12z"
        style="stroke: var(--color1, #1e1e1e)"
      />
      <path
        fill="none"
        stroke="#1e1e1e"
        stroke-linecap="round"
        stroke-width="2"
        d="m9.802 20-.849 3.097c-.837 3.056-1.256 4.584-.697 5.42.196.293.459.528.764.684.869.443 2.213-.257 4.9-1.657.893-.467 1.341-.699 1.816-.749.176-.018.354-.018.531 0 .475.051.921.284 1.816.749 2.687 1.4 4.031 2.1 4.9 1.657.305-.156.568-.391.764-.684.56-.836.14-2.364-.697-5.42L22.201 20"
        opacity=".5"
        style="stroke: var(--color1, #1e1e1e)"
      />
    </symbol>
    <symbol id="icon-improvement" viewBox="0 0 32 32">
      <path
        fill="none"
        stroke="#1e1e1e"
        stroke-width="2"
        d="M15.748 8.969c1.352-2.424 2.027-3.636 3.039-3.636 1.009 0 1.685 1.212 3.036 3.636l.349.627c.384.689.576 1.033.876 1.26.299.227.672.312 1.417.48l.68.155c2.623.593 3.933.889 4.247 1.893s-.583 2.049-2.371 4.141l-.463.541c-.508.593-.763.891-.877 1.259s-.076.764 0 1.557l.071.721c.271 2.792.407 4.187-.411 4.807s-2.045.055-4.503-1.076l-.635-.293c-.699-.32-1.048-.481-1.417-.481-.371 0-.72.16-1.417.481l-.636.293c-2.456 1.131-3.684 1.696-4.501 1.076s-.681-2.015-.412-4.807l.071-.721c.076-.793.115-1.189 0-1.557s-.368-.664-.876-1.259l-.463-.541c-1.792-2.092-2.685-3.139-2.372-4.141s1.624-1.3 4.247-1.893l.68-.155c.745-.168 1.117-.253 1.417-.48s.491-.571.875-1.26l.349-.627z"
        style="stroke: var(--color1, #1e1e1e)"
      />
      <path
        fill="none"
        stroke="#1e1e1e"
        stroke-linecap="round"
        stroke-width="2"
        d="M2.786 21.333a6.326 6.326 0 0 1 5.333-1.165M2.786 14c1.333-.667 1.72-.587 2.667-.667M2.667 7.479l.277-.163C5.885 5.593 9 5.129 11.937 5.976l.277.08"
        opacity=".5"
        style="stroke: var(--color1, #1e1e1e)"
      />
    </symbol>
    <symbol id="icon-menu" viewBox="0 0 32 32">
      <path
        d="M5.333 24c-.378 0-.694-.128-.949-.384s-.383-.572-.384-.949c-.001-.377.127-.693.384-.949s.573-.384.949-.384h21.333c.378 0 .695.128.951.384s.384.573.383.949c-.001.377-.129.694-.384.951s-.572.384-.949.383H5.334zm0-6.667c-.378 0-.694-.128-.949-.384S4.001 16.377 4 16c-.001-.377.127-.693.384-.949s.573-.384.949-.384h21.333c.378 0 .695.128.951.384s.384.572.383.949c-.001.377-.129.694-.384.951s-.572.384-.949.383H5.334zm0-6.666c-.378 0-.694-.128-.949-.384S4.001 9.711 4 9.334c-.001-.377.127-.693.384-.949s.573-.384.949-.384h21.333c.378 0 .695.128.951.384s.384.572.383.949c-.001.377-.129.694-.384.951s-.572.384-.949.383H5.334z"
      />
    </symbol>
    <symbol id="icon-play" viewBox="0 0 32 32">
      <path
        fill="none"
        stroke="#1e1e1e"
        stroke-width="2"
        d="M16 29.333c7.364 0 13.333-5.97 13.333-13.333S23.363 2.667 16 2.667C8.636 2.667 2.667 8.637 2.667 16S8.637 29.333 16 29.333z"
        opacity=".5"
        style="stroke: var(--color1, #1e1e1e)"
      />
      <path
        fill="none"
        stroke="#1e1e1e"
        stroke-width="2"
        d="M18.518 13.247C19.951 14.416 20.667 15 20.667 16s-.716 1.584-2.149 2.753a20.34 20.34 0 0 1-1.149.88 18.66 18.66 0 0 1-1.045.677c-1.431.869-2.145 1.304-2.787.823-.64-.48-.699-1.488-.816-3.504-.032-.569-.053-1.128-.053-1.629s.021-1.06.053-1.629c.117-2.016.176-3.023.816-3.504.641-.481 1.357-.047 2.787.823.371.225.729.455 1.045.677.36.253.753.557 1.149.88z"
        style="stroke: var(--color1, #1e1e1e)"
      />
    </symbol>
    <symbol id="icon-quote" viewBox="0 0 32 32">
      <path
        d="m29.267 11.628-.033-.224-.035.008a6.006 6.006 0 0 0-4.472-4.581 6.003 6.003 0 0 0-7.353 5.135 5.997 5.997 0 0 0 2.76 5.777 6.004 6.004 0 0 0 3.201.924c.297 0 .583-.045.867-.087-.092.309-.187.624-.339.907-.152.411-.389.767-.625 1.125-.197.388-.545.651-.801.983-.268.323-.633.537-.923.805-.284.28-.656.42-.952.617-.309.177-.579.373-.867.467l-.719.296-.632.263.645 2.585.796-.192c.255-.064.565-.139.919-.228.361-.067.747-.249 1.176-.416.423-.191.915-.317 1.371-.623.459-.291.988-.533 1.455-.923.452-.401.997-.749 1.4-1.259.44-.477.875-.979 1.212-1.549.391-.544.656-1.141.936-1.732.253-.591.457-1.195.624-1.781.316-1.176.457-2.293.512-3.249.045-.957.019-1.753-.037-2.329a9.648 9.648 0 0 0-.084-.719zm-14.667 0-.033-.224-.035.008a6.006 6.006 0 0 0-4.472-4.581 6.007 6.007 0 0 0-6.061 2.064 6 6 0 0 0 4.668 9.772c.297 0 .583-.045.867-.087-.092.309-.187.624-.339.907-.152.411-.389.767-.625 1.125-.197.388-.545.651-.801.983-.268.323-.633.537-.923.805-.284.28-.656.42-.952.617-.309.177-.579.373-.867.467l-.719.296c-.401.164-.631.26-.631.26l.645 2.585.796-.192c.255-.064.565-.139.919-.228.361-.067.747-.249 1.176-.416.423-.191.915-.317 1.371-.623.459-.291.988-.533 1.455-.923.452-.401.997-.749 1.4-1.259.44-.477.875-.979 1.212-1.549.391-.544.656-1.141.936-1.732.253-.591.457-1.195.624-1.781.316-1.176.457-2.293.512-3.249.045-.957.019-1.753-.037-2.329a10.75 10.75 0 0 0-.085-.716z"
      />
    </symbol>
    <symbol id="icon-relaxation" viewBox="0 0 32 32">
      <path
        fill="none"
        stroke="#1e1e1e"
        stroke-width="2"
        d="M22.666 22.667h1.333a5.334 5.334 0 0 0 0-10.666h-1.333m-18.288 3.02c-.177-2.667-.267-3.999.524-4.843.791-.845 2.127-.845 4.799-.845h7.265c2.671 0 4.007 0 4.797.845.791.844.701 2.177.524 4.843l-.457 6.844c-.236 3.54-.353 5.309-1.507 6.389s-2.928 1.079-6.475 1.079h-1.032c-3.547 0-5.32 0-6.475-1.08-1.153-1.079-1.271-2.848-1.507-6.387l-.457-6.845z"
        style="stroke: var(--color1, #1e1e1e)"
      />
      <path
        fill="none"
        stroke="#1e1e1e"
        stroke-width="2"
        d="M21.999 24H4.666"
        opacity=".5"
        style="stroke: var(--color1, #1e1e1e)"
      />
      <path
        fill="none"
        stroke="#1e1e1e"
        stroke-linecap="round"
        stroke-width="2"
        d="m8.066 6.748.548-.767a.947.947 0 0 0 .033-1.048.933.933 0 0 0-.252-.268.942.942 0 0 1-.22-1.315l.547-.767m10.012 4.165.547-.767a.95.95 0 0 0 .032-1.048.923.923 0 0 0-.253-.268.942.942 0 0 1-.22-1.315l.547-.767"
        style="stroke: var(--color1, #1e1e1e)"
      />
      <path
        fill="none"
        stroke="#1e1e1e"
        stroke-linecap="round"
        stroke-width="2"
        d="m13.4 6.748.548-.767c.072-.101.123-.215.152-.336s.032-.246.011-.368a.946.946 0 0 0-.382-.612.945.945 0 0 1-.22-1.315l.547-.767"
        opacity=".5"
        style="stroke: var(--color1, #1e1e1e)"
      />
    </symbol>
    <symbol id="icon-up-arrow" viewBox="0 0 32 32">
      <path
        d="M7.293 23.293a1.013 1.013 0 0 0-.318.714.993.993 0 0 0 .293.725.992.992 0 0 0 .725.293 1.001 1.001 0 0 0 .714-.318l-1.413-1.413zm1.413 1.414 16-16-1.413-1.413-16 16 1.413 1.413z"
      />
      <path
        fill="none"
        stroke="#1e1e1e"
        stroke-linecap="round"
        stroke-linejoin="round"
        stroke-width="2"
        d="M12 8h12v12"
        style="stroke: var(--color1, #1e1e1e)"
      />
    </symbol>
    <symbol id="icon-visualization" viewBox="0 0 32 32">
      <path
        fill="none"
        stroke="#1e1e1e"
        stroke-width="2"
        d="M2.667 16.035c0 6.861 5.156 12.516 11.796 13.28.98.113 1.929-.304 2.627-1.004a2.24 2.24 0 0 0 0-3.162c-.697-.7-1.267-1.743-.74-2.579 2.101-3.344 12.984 4.335 12.984-6.533 0-7.385-5.969-13.369-13.333-13.369S2.668 8.653 2.668 16.036z"
        style="stroke: var(--color1, #1e1e1e)"
      />
      <path
        fill="none"
        stroke="#1e1e1e"
        stroke-width="2"
        d="M23.334 17.333a2 2 0 1 0 .001-3.999 2 2 0 0 0-.001 3.999zM8.667 17.333a2 2 0 1 0 .001-3.999 2 2 0 0 0-.001 3.999zM14.667 9.333a2 2 0 1 1-4.001-.001 2 2 0 0 1 4.001.001zm6.667 0a2 2 0 1 1-4.001-.001 2 2 0 0 1 4.001.001z"
        opacity=".5"
        style="stroke: var(--color1, #1e1e1e)"
      />
    </symbol>
  </defs>
</svg>
